# xmcd
#
# Track frame offsets: 
#        151
#        18034
#        33519
#        49834
#        65545
#        86808
#        106181
#        124290
#        138503
#        156076
#
# Disc length: 2319 seconds
#
# Revision: 0
# Processed by: cddbd v1.5.2PL0 Copyright (c) Steve Scherf et al.
# Submitted via: ExactAudioCopy v0.95b4
#
DISCID=82090d0a
DTITLE=หงษ์ทอง  หงษา - หนุ่มหมอลำซิ่ง
DYEAR=2003
DGENRE=Country
TTITLE0=รอเก้อที่มออีแดง
TTITLE1=น้ำชีเศร้าพี่เหงาใจ
TTITLE2=สงสารเพื่อน
TTITLE3=เอ็นน้องกลับโขงเจียม
TTITLE4=หนุ่มหมอลำซิ่ง
TTITLE5=เต้ยกันตรึม
TTITLE6=ตามหามาลี
TTITLE7=ลืมขี้เมาซะ
TTITLE8=ชายอิสระ
TTITLE9=ลำล่องเอิ้นหาบัวลี
EXTD=
EXTT0=
EXTT1=
EXTT2=
EXTT3=
EXTT4=
EXTT5=
EXTT6=
EXTT7=
EXTT8=
EXTT9=
PLAYORDER=
